<mxfile host="app.diagrams.net" modified="2022-11-01T01:54:19.409Z" agent="5.0 (Macintosh; Intel Mac OS X 10_15_7) AppleWebKit/605.1.15 (KHTML, like Gecko) Version/16.1 Safari/605.1.15" etag="ylloCCobSt7j_3m8lT3e" version="20.5.1" type="github">
  <diagram id="L-MYgFU7t1Wd9B6l5E1I" name="第 1 页">
    <mxGraphModel dx="1732" dy="876" grid="1" gridSize="10" guides="1" tooltips="1" connect="1" arrows="1" fold="1" page="1" pageScale="1" pageWidth="1169" pageHeight="827" math="0" shadow="0">
      <root>
        <mxCell id="0" />
        <mxCell id="1" parent="0" />
        <mxCell id="GGLP2LOhdoPwG8EAP_vs-1" value="&lt;font style=&quot;font-size: 19px;&quot; color=&quot;#006666&quot;&gt;实体去偏&lt;/font&gt;" style="rounded=1;whiteSpace=wrap;html=1;fillColor=#fff2cc;strokeColor=#d6b656;" vertex="1" parent="1">
          <mxGeometry x="200" y="210" width="210" height="90" as="geometry" />
        </mxCell>
        <mxCell id="GGLP2LOhdoPwG8EAP_vs-2" value="&lt;font style=&quot;font-size: 19px;&quot; color=&quot;#006666&quot;&gt;实体去偏&lt;/font&gt;" style="rounded=1;whiteSpace=wrap;html=1;fillColor=#fff2cc;strokeColor=#d6b656;" vertex="1" parent="1">
          <mxGeometry x="200" y="380" width="210" height="90" as="geometry" />
        </mxCell>
      </root>
    </mxGraphModel>
  </diagram>
</mxfile>
